<mxfile host="app.diagrams.net" modified="2022-11-03T07:23:47.474Z" agent="5.0 (Windows NT 10.0; Win64; x64) AppleWebKit/537.36 (KHTML, like Gecko) Chrome/106.0.0.0 Safari/537.36" etag="12ZWAXRpatp6_6LTw1-j" version="20.5.1" type="github">
  <diagram id="C5RBs43oDa-KdzZeNtuy" name="Page-1">
    <mxGraphModel dx="782" dy="436" grid="1" gridSize="10" guides="1" tooltips="1" connect="1" arrows="1" fold="1" page="1" pageScale="1" pageWidth="827" pageHeight="1169" math="0" shadow="0">
      <root>
        <mxCell id="WIyWlLk6GJQsqaUBKTNV-0" />
        <mxCell id="WIyWlLk6GJQsqaUBKTNV-1" parent="WIyWlLk6GJQsqaUBKTNV-0" />
        <mxCell id="BuM0Ts7lW0D9OFEtNd53-8" value="" style="edgeStyle=orthogonalEdgeStyle;rounded=0;orthogonalLoop=1;jettySize=auto;html=1;" edge="1" parent="WIyWlLk6GJQsqaUBKTNV-1" source="BuM0Ts7lW0D9OFEtNd53-0" target="BuM0Ts7lW0D9OFEtNd53-2">
          <mxGeometry relative="1" as="geometry" />
        </mxCell>
        <mxCell id="BuM0Ts7lW0D9OFEtNd53-0" value="&lt;font style=&quot;font-size: 18px;&quot;&gt;开始&lt;/font&gt;" style="ellipse;whiteSpace=wrap;html=1;" vertex="1" parent="WIyWlLk6GJQsqaUBKTNV-1">
          <mxGeometry x="312.5" y="90" width="100" height="70" as="geometry" />
        </mxCell>
        <mxCell id="BuM0Ts7lW0D9OFEtNd53-9" value="" style="edgeStyle=orthogonalEdgeStyle;rounded=0;orthogonalLoop=1;jettySize=auto;html=1;" edge="1" parent="WIyWlLk6GJQsqaUBKTNV-1" source="BuM0Ts7lW0D9OFEtNd53-2" target="BuM0Ts7lW0D9OFEtNd53-3">
          <mxGeometry relative="1" as="geometry" />
        </mxCell>
        <mxCell id="BuM0Ts7lW0D9OFEtNd53-2" value="关联实体表和统计表" style="rounded=1;whiteSpace=wrap;html=1;fontSize=18;" vertex="1" parent="WIyWlLk6GJQsqaUBKTNV-1">
          <mxGeometry x="280" y="210" width="165" height="60" as="geometry" />
        </mxCell>
        <mxCell id="BuM0Ts7lW0D9OFEtNd53-10" style="edgeStyle=orthogonalEdgeStyle;rounded=0;orthogonalLoop=1;jettySize=auto;html=1;entryX=0.5;entryY=0;entryDx=0;entryDy=0;" edge="1" parent="WIyWlLk6GJQsqaUBKTNV-1" source="BuM0Ts7lW0D9OFEtNd53-3" target="BuM0Ts7lW0D9OFEtNd53-4">
          <mxGeometry relative="1" as="geometry" />
        </mxCell>
        <mxCell id="BuM0Ts7lW0D9OFEtNd53-12" style="edgeStyle=orthogonalEdgeStyle;rounded=0;orthogonalLoop=1;jettySize=auto;html=1;entryX=0.5;entryY=0;entryDx=0;entryDy=0;" edge="1" parent="WIyWlLk6GJQsqaUBKTNV-1" source="BuM0Ts7lW0D9OFEtNd53-3" target="BuM0Ts7lW0D9OFEtNd53-7">
          <mxGeometry relative="1" as="geometry" />
        </mxCell>
        <mxCell id="BuM0Ts7lW0D9OFEtNd53-3" value="时间筛选" style="rounded=1;whiteSpace=wrap;html=1;fontSize=18;" vertex="1" parent="WIyWlLk6GJQsqaUBKTNV-1">
          <mxGeometry x="280" y="320" width="165" height="60" as="geometry" />
        </mxCell>
        <mxCell id="BuM0Ts7lW0D9OFEtNd53-13" value="" style="edgeStyle=orthogonalEdgeStyle;rounded=0;orthogonalLoop=1;jettySize=auto;html=1;" edge="1" parent="WIyWlLk6GJQsqaUBKTNV-1" source="BuM0Ts7lW0D9OFEtNd53-4" target="BuM0Ts7lW0D9OFEtNd53-5">
          <mxGeometry relative="1" as="geometry" />
        </mxCell>
        <mxCell id="BuM0Ts7lW0D9OFEtNd53-23" style="edgeStyle=orthogonalEdgeStyle;rounded=0;orthogonalLoop=1;jettySize=auto;html=1;" edge="1" parent="WIyWlLk6GJQsqaUBKTNV-1" source="BuM0Ts7lW0D9OFEtNd53-4" target="BuM0Ts7lW0D9OFEtNd53-15">
          <mxGeometry relative="1" as="geometry">
            <Array as="points">
              <mxPoint x="363" y="470" />
            </Array>
          </mxGeometry>
        </mxCell>
        <mxCell id="BuM0Ts7lW0D9OFEtNd53-24" value="&lt;font style=&quot;font-size: 14px;&quot;&gt;无&lt;/font&gt;" style="edgeLabel;html=1;align=center;verticalAlign=middle;resizable=0;points=[];" vertex="1" connectable="0" parent="BuM0Ts7lW0D9OFEtNd53-23">
          <mxGeometry x="-0.7561" y="4" relative="1" as="geometry">
            <mxPoint x="1" y="4" as="offset" />
          </mxGeometry>
        </mxCell>
        <mxCell id="BuM0Ts7lW0D9OFEtNd53-4" value="用户输入" style="rhombus;whiteSpace=wrap;html=1;fontSize=18;" vertex="1" parent="WIyWlLk6GJQsqaUBKTNV-1">
          <mxGeometry x="90" y="430" width="170" height="80" as="geometry" />
        </mxCell>
        <mxCell id="BuM0Ts7lW0D9OFEtNd53-16" style="edgeStyle=orthogonalEdgeStyle;rounded=0;orthogonalLoop=1;jettySize=auto;html=1;entryX=0;entryY=0.5;entryDx=0;entryDy=0;" edge="1" parent="WIyWlLk6GJQsqaUBKTNV-1" source="BuM0Ts7lW0D9OFEtNd53-5" target="BuM0Ts7lW0D9OFEtNd53-15">
          <mxGeometry relative="1" as="geometry">
            <Array as="points">
              <mxPoint x="170" y="720" />
            </Array>
          </mxGeometry>
        </mxCell>
        <mxCell id="BuM0Ts7lW0D9OFEtNd53-5" value="用户输入条件" style="rounded=1;whiteSpace=wrap;html=1;fontSize=18;" vertex="1" parent="WIyWlLk6GJQsqaUBKTNV-1">
          <mxGeometry x="92.5" y="570" width="165" height="60" as="geometry" />
        </mxCell>
        <mxCell id="BuM0Ts7lW0D9OFEtNd53-17" style="edgeStyle=orthogonalEdgeStyle;rounded=0;orthogonalLoop=1;jettySize=auto;html=1;entryX=1;entryY=0.5;entryDx=0;entryDy=0;" edge="1" parent="WIyWlLk6GJQsqaUBKTNV-1" source="BuM0Ts7lW0D9OFEtNd53-6" target="BuM0Ts7lW0D9OFEtNd53-15">
          <mxGeometry relative="1" as="geometry">
            <Array as="points">
              <mxPoint x="535" y="720" />
            </Array>
          </mxGeometry>
        </mxCell>
        <mxCell id="BuM0Ts7lW0D9OFEtNd53-6" value="数据域条件" style="rounded=1;whiteSpace=wrap;html=1;fontSize=18;" vertex="1" parent="WIyWlLk6GJQsqaUBKTNV-1">
          <mxGeometry x="452.5" y="570" width="165" height="60" as="geometry" />
        </mxCell>
        <mxCell id="BuM0Ts7lW0D9OFEtNd53-14" value="" style="edgeStyle=orthogonalEdgeStyle;rounded=0;orthogonalLoop=1;jettySize=auto;html=1;" edge="1" parent="WIyWlLk6GJQsqaUBKTNV-1" source="BuM0Ts7lW0D9OFEtNd53-7" target="BuM0Ts7lW0D9OFEtNd53-6">
          <mxGeometry relative="1" as="geometry">
            <Array as="points">
              <mxPoint x="535" y="530" />
              <mxPoint x="535" y="530" />
            </Array>
          </mxGeometry>
        </mxCell>
        <mxCell id="BuM0Ts7lW0D9OFEtNd53-22" style="edgeStyle=orthogonalEdgeStyle;rounded=0;orthogonalLoop=1;jettySize=auto;html=1;" edge="1" parent="WIyWlLk6GJQsqaUBKTNV-1" source="BuM0Ts7lW0D9OFEtNd53-7" target="BuM0Ts7lW0D9OFEtNd53-15">
          <mxGeometry relative="1" as="geometry" />
        </mxCell>
        <mxCell id="BuM0Ts7lW0D9OFEtNd53-25" value="未开启" style="edgeLabel;html=1;align=center;verticalAlign=middle;resizable=0;points=[];fontSize=14;" vertex="1" connectable="0" parent="BuM0Ts7lW0D9OFEtNd53-22">
          <mxGeometry x="-0.7745" y="1" relative="1" as="geometry">
            <mxPoint as="offset" />
          </mxGeometry>
        </mxCell>
        <mxCell id="BuM0Ts7lW0D9OFEtNd53-7" value="分权分域" style="rhombus;whiteSpace=wrap;html=1;fontSize=18;" vertex="1" parent="WIyWlLk6GJQsqaUBKTNV-1">
          <mxGeometry x="450" y="430" width="170" height="80" as="geometry" />
        </mxCell>
        <mxCell id="BuM0Ts7lW0D9OFEtNd53-20" value="" style="edgeStyle=orthogonalEdgeStyle;rounded=0;orthogonalLoop=1;jettySize=auto;html=1;" edge="1" parent="WIyWlLk6GJQsqaUBKTNV-1" source="BuM0Ts7lW0D9OFEtNd53-15" target="BuM0Ts7lW0D9OFEtNd53-18">
          <mxGeometry relative="1" as="geometry" />
        </mxCell>
        <mxCell id="BuM0Ts7lW0D9OFEtNd53-15" value="排序字段" style="rounded=1;whiteSpace=wrap;html=1;fontSize=18;" vertex="1" parent="WIyWlLk6GJQsqaUBKTNV-1">
          <mxGeometry x="280" y="690" width="165" height="60" as="geometry" />
        </mxCell>
        <mxCell id="BuM0Ts7lW0D9OFEtNd53-21" value="" style="edgeStyle=orthogonalEdgeStyle;rounded=0;orthogonalLoop=1;jettySize=auto;html=1;" edge="1" parent="WIyWlLk6GJQsqaUBKTNV-1" source="BuM0Ts7lW0D9OFEtNd53-18" target="BuM0Ts7lW0D9OFEtNd53-19">
          <mxGeometry relative="1" as="geometry" />
        </mxCell>
        <mxCell id="BuM0Ts7lW0D9OFEtNd53-18" value="分页参数" style="rounded=1;whiteSpace=wrap;html=1;fontSize=18;" vertex="1" parent="WIyWlLk6GJQsqaUBKTNV-1">
          <mxGeometry x="280" y="790" width="165" height="60" as="geometry" />
        </mxCell>
        <mxCell id="BuM0Ts7lW0D9OFEtNd53-19" value="&lt;span style=&quot;font-size: 18px;&quot;&gt;查询&lt;/span&gt;" style="ellipse;whiteSpace=wrap;html=1;" vertex="1" parent="WIyWlLk6GJQsqaUBKTNV-1">
          <mxGeometry x="312.5" y="890" width="100" height="70" as="geometry" />
        </mxCell>
      </root>
    </mxGraphModel>
  </diagram>
</mxfile>
